Jump_normalized_Motion_pl07
version=1
nRows=12
nColumns=43
inDegrees=yes
endheader
time		pelvis_tilt		pelvis_list		pelvis_rotation		pelvis_tx		pelvis_ty		pelvis_tz		hip_flexion_r		hip_adduction_r		hip_rotation_r		knee_angle_r		ankle_angle_r		subtalar_angle_r		mtp_angle_r		hip_flexion_l		hip_adduction_l		hip_rotation_l		knee_angle_l		ankle_angle_l		subtalar_angle_l		mtp_angle_l		lumbar_extension		lumbar_bending		lumbar_rotation		neck_flexion		neck_lateral_bending		neck_rotation		arm_flex_r		arm_add_r		arm_rot_r		elbow_flex_r		pro_sup_r		wrist_flex_r		wrist_dev_r		hand_finger_flex_r		arm_flex_l		arm_add_l		arm_rot_l		elbow_flex_l		pro_sup_l		wrist_flex_l		wrist_dev_l		hand_finger_flex_l		
0.110833		2.521014		-20.969157		88.700901		0.072510		1.795681		1.654076		62.802975		-0.773731		2.823359		-136.524593		21.892225		6.708026		26.851767		75.074001		-7.442575		15.815418		-136.978351		-13.533612		22.556816		37.261380		-35.525166		-0.069135		6.541250		34.549204		0.345007		-4.619557		102.880717		-18.738109		13.385907		66.377292		112.785795		-5.625438		-10.174126		18.166678		102.615275		-11.604975		20.806425		42.370229		101.887122		-15.937805		-3.535395		9.322964		
0.112475		2.522404		-20.881161		88.658831		0.072467		1.796378		1.650596		62.253094		-0.704082		2.878826		-136.262720		21.748455		6.707660		26.857401		74.895093		-7.462237		15.749235		-136.670911		-14.601378		22.443796		37.006129		-35.444080		-0.092381		6.573186		34.185060		0.489458		-4.664812		102.926687		-18.797612		13.626521		66.197088		112.790877		-5.464341		-10.077134		18.206864		102.527998		-11.666489		20.899259		42.404798		101.932306		-15.884467		-3.529814		9.326477		
0.114116		2.513838		-20.738436		88.670680		0.072355		1.797121		1.647095		61.648612		-0.699496		2.927365		-136.009501		21.526611		6.736162		26.876368		74.698831		-7.389715		15.667602		-136.328993		-15.873504		22.129255		36.659852		-35.440665		-0.087076		6.574828		33.962199		0.506299		-4.661966		102.991454		-18.847790		13.837141		66.027111		112.748173		-5.301837		-9.947487		18.213740		102.526738		-11.681379		21.008718		42.314374		101.981034		-15.831835		-3.463482		9.308144		
0.115758		2.506195		-20.605701		88.668911		0.072246		1.797842		1.643591		61.060005		-0.676292		2.987278		-135.754605		21.307301		6.769605		26.905982		74.512415		-7.337422		15.567374		-135.982497		-17.086560		21.761515		36.303477		-35.425436		-0.088824		6.591586		33.727832		0.539814		-4.668567		103.047466		-18.920014		14.069215		65.874012		112.697182		-5.133488		-9.806704		18.206895		102.508894		-11.705480		21.131266		42.251097		102.032106		-15.779024		-3.408901		9.282232		
0.117399		2.499811		-20.485618		88.650270		0.072140		1.798536		1.640082		60.490916		-0.630181		3.060585		-135.497595		21.092371		6.808288		26.947777		74.337801		-7.310410		15.445730		-135.631288		-18.226977		21.335385		35.936980		-35.395008		-0.099322		6.626533		33.477465		0.595109		-4.687067		103.092922		-19.018127		14.326865		65.740418		112.637396		-4.958345		-9.653526		18.184649		102.470133		-11.741175		21.268783		42.221772		102.085847		-15.725992		-3.369138		9.247877		
0.119040		2.478258		-20.364432		88.656682		0.072006		1.799205		1.636565		59.932360		-0.623385		3.133237		-135.246903		20.841032		6.872097		27.004918		74.175888		-7.243829		15.313438		-135.262698		-19.312518		20.868651		35.557829		-35.365579		-0.105932		6.634162		33.250284		0.624574		-4.708524		103.134859		-19.131854		14.602545		65.626076		112.572137		-4.790870		-9.484990		18.132176		102.429572		-11.770779		21.420623		42.172490		102.144085		-15.681424		-3.325101		9.190455		
0.120682		2.453500		-20.251447		88.650579		0.071851		1.799849		1.633064		59.392951		-0.610398		3.231461		-134.991884		20.536229		6.956744		27.586890		74.033125		-7.182156		15.129761		-134.913201		-20.214043		20.192267		34.189661		-35.332435		-0.121917		6.667378		33.075961		0.639134		-4.736135		103.192294		-19.311247		14.950629		65.555955		112.188638		-4.475684		-9.156037		17.505468		102.408892		-11.793348		21.630984		42.099478		102.119481		-15.514824		-3.287668		8.713270		
0.122323		2.425634		-20.150107		88.624552		0.071672		1.800463		1.629584		58.879516		-0.585072		3.365733		-134.730190		20.159541		7.068397		28.906097		73.916144		-7.131042		14.874748		-134.592180		-20.861647		19.224568		31.430713		-35.293970		-0.151455		6.739126		32.973889		0.635100		-4.772134		103.271867		-19.581618		15.398952		65.546293		111.357750		-3.951901		-8.602730		16.073366		102.416360		-11.806576		21.922386		41.994910		101.977866		-15.175694		-3.259923		7.647436		
0.123965		2.400853		-20.051872		88.639914		0.071486		1.801050		1.626043		58.361488		-0.593666		3.439760		-134.480893		19.864330		7.138114		29.033541		73.768230		-7.071123		14.755475		-134.201587		-21.534312		19.037731		31.009967		-35.233021		-0.159720		6.728141		32.666209		0.701977		-4.821846		103.257995		-19.706393		15.641855		65.469012		111.389573		-3.774761		-8.487819		15.957626		102.314470		-11.865775		22.059275		42.020342		102.035121		-15.111300		-3.254713		7.515691		
0.125606		2.381215		-19.944080		88.653878		0.071295		1.801638		1.622518		57.842401		-0.596898		3.511714		-134.234746		19.569412		7.223759		29.038492		73.628721		-7.012468		14.650473		-133.793126		-22.297789		18.847823		30.843062		-35.188324		-0.161760		6.722415		32.415150		0.748103		-4.866720		103.270609		-19.785164		15.851844		65.338791		111.558861		-3.638839		-8.405805		15.993589		102.241402		-11.916932		22.216572		42.000679		102.147958		-15.081759		-3.228242		7.462415		
0.127247		2.369724		-19.819321		88.656920		0.071098		1.802233		1.619035		57.322449		-0.583975		3.592545		-133.991424		19.258193		7.345263		29.079897		73.509947		-6.957792		14.541864		-133.368484		-23.211237		18.491673		30.627715		-35.176027		-0.157552		6.742733		32.303210		0.744158		-4.900502		103.347736		-19.815364		16.047957		65.132071		111.785113		-3.501865		-8.289601		16.017306		102.240117		-11.944870		22.440589		41.877173		102.314747		-15.055112		-3.160801		7.350602		
0.128889		2.348960		-19.724614		88.682581		0.070877		1.802793		1.615472		56.819144		-0.593130		3.671977		-133.743560		18.965173		7.432748		29.093770		73.376866		-6.892151		14.431335		-132.959438		-23.602274		18.325945		30.530062		-35.115569		-0.158575		6.740695		32.025056		0.779113		-4.931304		103.287926		-19.911763		16.198952		65.068681		111.919758		-3.404627		-8.233472		16.050021		102.119920		-11.989181		22.593668		41.903497		102.411166		-15.032522		-3.154342		7.286986		
